<svg width="12" height="12" viewBox="0 0 12 12" fill="none" xmlns="http://www.w3.org/2000/svg">
<path d="M9.43495 10.8492L5.89941 7.31371L2.36388 10.8492C2.17634 11.0368 1.92199 11.1421 1.65677 11.1421C1.39156 11.1421 1.1372 11.0368 0.949667 10.8492C0.762131 10.6617 0.656774 10.4074 0.656774 10.1421C0.656774 9.87692 0.762131 9.62256 0.949667 9.43503L4.4852 5.89949L0.949667 2.36396C0.76213 2.17642 0.656774 1.92207 0.656774 1.65685C0.656774 1.39164 0.76213 1.13728 0.949667 0.949747C1.1372 0.762211 1.39156 0.656854 1.65677 0.656854C1.92199 0.656855 2.17634 0.762211 2.36388 0.949747L5.89941 4.48528L9.43495 0.949747C9.62248 0.762211 9.87684 0.656854 10.1421 0.656854C10.4073 0.656854 10.6616 0.762211 10.8492 0.949747C11.0367 1.13728 11.1421 1.39164 11.1421 1.65685C11.1421 1.92207 11.0367 2.17642 10.8492 2.36396L7.31363 5.89949L10.8492 9.43503C11.0367 9.62257 11.1421 9.87692 11.1421 10.1421C11.1421 10.4074 11.0367 10.6617 10.8492 10.8492C10.6616 11.0368 10.4073 11.1421 10.1421 11.1421C9.87684 11.1421 9.62248 11.0368 9.43495 10.8492Z" fill="#727272"/>
</svg>
