<svg width="16" height="17" viewBox="0 0 16 17" fill="none" xmlns="http://www.w3.org/2000/svg">
<path d="M8 12.4745C7.86667 12.4745 7.74167 12.4539 7.625 12.4125C7.50834 12.3712 7.4 12.3002 7.3 12.1995L3.7 8.59954C3.51667 8.41621 3.425 8.18287 3.425 7.89954C3.425 7.61621 3.51667 7.38287 3.7 7.19954C3.88333 7.01621 4.121 6.92054 4.413 6.91254C4.705 6.90454 4.94234 6.99187 5.125 7.17454L7 9.04954V1.89954C7 1.61621 7.096 1.37854 7.288 1.18654C7.48 0.99454 7.71734 0.898873 8 0.89954C8.28334 0.89954 8.521 0.99554 8.713 1.18754C8.905 1.37954 9.00067 1.61687 9 1.89954V9.04954L10.875 7.17454C11.0583 6.99121 11.296 6.90354 11.588 6.91154C11.88 6.91954 12.1173 7.01554 12.3 7.19954C12.4833 7.38287 12.575 7.61621 12.575 7.89954C12.575 8.18287 12.4833 8.41621 12.3 8.59954L8.7 12.1995C8.6 12.2995 8.49167 12.3705 8.375 12.4125C8.25834 12.4545 8.13334 12.4752 8 12.4745ZM2 16.8995C1.45 16.8995 0.979002 16.7035 0.587002 16.3115C0.195002 15.9195 -0.000664969 15.4489 1.69779e-06 14.8995V12.8995C1.69779e-06 12.6162 0.0960018 12.3785 0.288002 12.1865C0.480002 11.9945 0.717335 11.8989 1 11.8995C1.28333 11.8995 1.521 11.9955 1.713 12.1875C1.905 12.3795 2.00067 12.6169 2 12.8995V14.8995H14V12.8995C14 12.6162 14.096 12.3785 14.288 12.1865C14.48 11.9945 14.7173 11.8989 15 11.8995C15.2833 11.8995 15.521 11.9955 15.713 12.1875C15.905 12.3795 16.0007 12.6169 16 12.8995V14.8995C16 15.4495 15.804 15.9205 15.412 16.3125C15.02 16.7045 14.5493 16.9002 14 16.8995H2Z" fill="#727272"/>
</svg>
